<svg xmlns="http://www.w3.org/2000/svg" width="current" height="current" viewBox="0 0 21 20" fill="none">
  <mask id="mask0_117_2953" style="mask-type:alpha" maskUnits="userSpaceOnUse" x="0" y="0" width="21" height="20">
    <rect x="0.375" width="20" height="20" fill="#D9D9D9"/>
  </mask>
  <g mask="url(#mask0_117_2953)">
    <path d="M9.54167 3.33333V0H11.2083V3.33333H9.54167ZM5.85417 4.52083L3.35417 2.02083L4.54167 0.833333L7.04167 3.33333L5.85417 4.52083ZM3.70833 19.1667C3.47222 19.1667 3.27431 19.0868 3.11458 18.9271C2.95486 18.7674 2.875 18.5694 2.875 18.3333V11.6667L4.625 6.66667C4.70833 6.41667 4.85764 6.21528 5.07292 6.0625C5.28819 5.90972 5.52778 5.83333 5.79167 5.83333H7.875V4.16667H10.6042C10.2708 4.63889 10.0104 5.15625 9.82292 5.71875C9.63542 6.28125 9.54167 6.875 9.54167 7.5H6.08333L4.85417 10.8333H10.6042C10.8403 11.1667 11.1042 11.4757 11.3958 11.7604C11.6875 12.0451 12.0139 12.2917 12.375 12.5H4.54167V15.8333H16.2083V13.2708C16.5 13.2292 16.7847 13.1667 17.0625 13.0833C17.3403 13 17.6111 12.8958 17.875 12.7708V18.3333C17.875 18.5694 17.7951 18.7674 17.6354 18.9271C17.4757 19.0868 17.2778 19.1667 17.0417 19.1667H16.2083C15.9722 19.1667 15.7743 19.0868 15.6146 18.9271C15.4549 18.7674 15.375 18.5694 15.375 18.3333V17.5H5.375V18.3333C5.375 18.5694 5.29514 18.7674 5.13542 18.9271C4.97569 19.0868 4.77778 19.1667 4.54167 19.1667H3.70833ZM5.375 15H7.875C8.11111 15 8.30903 14.9201 8.46875 14.7604C8.62847 14.6007 8.70833 14.4028 8.70833 14.1667C8.70833 13.9306 8.62847 13.7326 8.46875 13.5729C8.30903 13.4132 8.11111 13.3333 7.875 13.3333H5.375V15ZM15.375 15V13.3333H12.875C12.6389 13.3333 12.441 13.4132 12.2812 13.5729C12.1215 13.7326 12.0417 13.9306 12.0417 14.1667C12.0417 14.4028 12.1215 14.6007 12.2812 14.7604C12.441 14.9201 12.6389 15 12.875 15H15.375ZM14.7708 9.375L17.6667 6.5L16.7917 5.625L14.7708 7.60417L13.9583 6.79167L13.0833 7.6875L14.7708 9.375ZM15.375 3.33333C16.5278 3.33333 17.5104 3.73958 18.3229 4.55208C19.1354 5.36458 19.5417 6.34722 19.5417 7.5C19.5417 8.65278 19.1354 9.63542 18.3229 10.4479C17.5104 11.2604 16.5278 11.6667 15.375 11.6667C14.2222 11.6667 13.2396 11.2604 12.4271 10.4479C11.6146 9.63542 11.2083 8.65278 11.2083 7.5C11.2083 6.34722 11.6146 5.36458 12.4271 4.55208C13.2396 3.73958 14.2222 3.33333 15.375 3.33333Z" fill="#799eff"/>
  </g>
</svg>