<svg width="100%" height="100%" viewBox="0 0 24 24" fill="none" xmlns="http://www.w3.org/2000/svg">
<g id="call">
<mask id="mask0_60_938" style="mask-type:alpha" maskUnits="userSpaceOnUse" x="0" y="0" width="24" height="24">
<rect id="Bounding box" width="24" height="24" fill="#D9D9D9"/>
</mask>
<g mask="url(#mask0_60_938)">
<path id="call_2" d="M19.95 21C17.8667 21 15.8042 20.55 13.7625 19.65C11.7208 18.75 9.86667 17.4667 8.2 15.8C6.53333 14.1333 5.25 12.2833 4.35 10.25C3.45 8.21667 3 6.15 3 4.05V3H8.9L9.825 8.025L6.975 10.9C7.34167 11.55 7.75 12.1667 8.2 12.75C8.65 13.3333 9.13333 13.875 9.65 14.375C10.1333 14.8583 10.6625 15.3208 11.2375 15.7625C11.8125 16.2042 12.4333 16.6167 13.1 17L16 14.1L21 15.125V21H19.95Z" fill="currentColor"/>
</g>
</g>
</svg>
