<svg width="50" height="50" viewBox="0 0 50 50" fill="none" xmlns="http://www.w3.org/2000/svg">
<rect x="1" y="1" width="48" height="48" rx="24" fill="white"/>
<mask id="mask0_341_5390" style="mask-type:alpha" maskUnits="userSpaceOnUse" x="13" y="5" width="24" height="24">
<rect x="13" y="5" width="24" height="24" fill="#D9D9D9"/>
</mask>
<g mask="url(#mask0_341_5390)">
<path fill-rule="evenodd" clip-rule="evenodd" d="M20 27C19.1667 27 18.4584 26.7083 17.875 26.125C17.2917 25.5417 17 24.8333 17 24H16C15.45 24 14.9792 23.8042 14.5875 23.4125C14.1959 23.0208 14 22.55 14 22L14 19H26V11H29V10C29 9.71667 29.0959 9.47917 29.2875 9.2875C29.4792 9.09583 29.7167 9 30 9H31C31.2834 9 31.5209 9.09583 31.7125 9.2875C31.9042 9.47917 32 9.71667 32 10V11H32.55C32.9834 11 33.375 11.125 33.725 11.375C34.075 11.625 34.3167 11.9583 34.4501 12.375L35.9 16.675C35.9334 16.775 35.9584 16.8792 35.975 16.9875C35.9917 17.0958 36 17.2083 36 17.325V24H33C33 24.8333 32.7084 25.5417 32.125 26.125C31.5417 26.7083 30.8334 27 30 27C29.1667 27 28.4584 26.7083 27.875 26.125C27.2917 25.5417 27 24.8333 27 24H23C23 24.8333 22.7084 25.5417 22.125 26.125C21.5417 26.7083 20.8334 27 20 27ZM20.7125 24.7125C20.5209 24.9042 20.2834 25 20 25C19.7167 25 19.4792 24.9042 19.2875 24.7125C19.0959 24.5208 19 24.2833 19 24C19 23.7167 19.0959 23.4792 19.2875 23.2875C19.4792 23.0958 19.7167 23 20 23C20.2834 23 20.5209 23.0958 20.7125 23.2875C20.9042 23.4792 21 23.7167 21 24C21 24.2833 20.9042 24.5208 20.7125 24.7125ZM30.7125 24.7125C30.5209 24.9042 30.2834 25 30 25C29.7167 25 29.4792 24.9042 29.2875 24.7125C29.0959 24.5208 29 24.2833 29 24C29 23.7167 29.0959 23.4792 29.2875 23.2875C29.4792 23.0958 29.7167 23 30 23C30.2834 23 30.5209 23.0958 30.7125 23.2875C30.9042 23.4792 31 23.7167 31 24C31 24.2833 30.9042 24.5208 30.7125 24.7125ZM33.9 17H28V13H32.55L33.9 17Z" fill="#FF8A3A"/>
<path d="M15.5042 17.5C15.0335 17.5 14.6989 17.2894 14.5005 16.8681C14.302 16.4468 14.3505 16.0556 14.6459 15.6945L17.7195 11.9445L17.7195 9.5H16.6119V8H22.1499V9.5H21.0423L21.0423 11.9445L24.1159 15.6945C24.4112 16.0556 24.4597 16.4468 24.2612 16.8681C24.0628 17.2894 23.7282 17.5 23.2575 17.5H15.5042Z" fill="#FF8A3A"/>
</g>
<path d="M21.7101 39.376C21.2141 39.424 20.7421 39.468 20.2941 39.508C19.8461 39.54 19.3581 39.568 18.8301 39.592C18.3101 39.616 17.7141 39.636 17.0421 39.652C16.3701 39.66 15.5621 39.664 14.6181 39.664V38.656C15.2101 38.656 15.7461 38.656 16.2261 38.656C16.7061 38.656 17.1501 38.648 17.5581 38.632V37.54C17.2221 37.5 16.9181 37.42 16.6461 37.3C16.3821 37.18 16.1581 37.036 15.9741 36.868C15.7901 36.7 15.6501 36.516 15.5541 36.316C15.4581 36.108 15.4101 35.896 15.4101 35.68V35.224C15.4101 34.984 15.4701 34.752 15.5901 34.528C15.7181 34.296 15.8941 34.092 16.1181 33.916C16.3501 33.74 16.6301 33.6 16.9581 33.496C17.2941 33.392 17.6701 33.34 18.0861 33.34C18.5021 33.34 18.8741 33.392 19.2021 33.496C19.5381 33.6 19.8181 33.74 20.0421 33.916C20.2741 34.092 20.4501 34.296 20.5701 34.528C20.6981 34.752 20.7621 34.984 20.7621 35.224V35.68C20.7621 36.104 20.5821 36.492 20.2221 36.844C19.8701 37.188 19.3741 37.412 18.7341 37.516V38.596C19.2701 38.58 19.7621 38.556 20.2101 38.524C20.6661 38.484 21.1341 38.444 21.6141 38.404L21.7101 39.376ZM22.2621 41.68V30.616H23.4381V35.044H25.0941V36.076H23.4381V41.68H22.2621ZM21.2061 32.884H14.8461V31.864H17.4981V30.532H18.6741V31.864H21.2061V32.884ZM18.0861 36.592C18.5741 36.592 18.9501 36.488 19.2141 36.28C19.4781 36.072 19.6101 35.836 19.6101 35.572V35.332C19.6101 35.068 19.4741 34.832 19.2021 34.624C18.9381 34.416 18.5661 34.312 18.0861 34.312C17.5981 34.312 17.2221 34.416 16.9581 34.624C16.6941 34.832 16.5621 35.068 16.5621 35.332V35.572C16.5621 35.836 16.6941 36.072 16.9581 36.28C17.2301 36.488 17.6061 36.592 18.0861 36.592ZM28.576 37.336C28.128 37.336 27.74 37.28 27.412 37.168C27.092 37.056 26.828 36.912 26.62 36.736C26.412 36.56 26.256 36.36 26.152 36.136C26.048 35.912 25.996 35.684 25.996 35.452V35.068C25.996 34.836 26.048 34.608 26.152 34.384C26.256 34.16 26.412 33.96 26.62 33.784C26.828 33.6 27.092 33.456 27.412 33.352C27.74 33.24 28.128 33.184 28.576 33.184C29.016 33.184 29.4 33.24 29.728 33.352C30.056 33.464 30.324 33.608 30.532 33.784C30.74 33.96 30.896 34.164 31 34.396C31.104 34.62 31.156 34.844 31.156 35.068V35.452C31.156 35.684 31.104 35.912 31 36.136C30.896 36.36 30.74 36.56 30.532 36.736C30.324 36.912 30.056 37.056 29.728 37.168C29.4 37.28 29.016 37.336 28.576 37.336ZM27.004 38.092H34V41.788H32.812V39.112H27.004V38.092ZM35.572 34.552H34V37.516H32.824V30.616H34V33.52H35.572V34.552ZM31.744 32.776H25.396V31.78H27.988V30.472H29.164V31.78H31.744V32.776ZM28.576 36.388C28.816 36.388 29.028 36.36 29.212 36.304C29.396 36.24 29.548 36.164 29.668 36.076C29.788 35.98 29.876 35.872 29.932 35.752C29.996 35.632 30.028 35.512 30.028 35.392V35.128C30.028 35.008 29.996 34.888 29.932 34.768C29.876 34.648 29.788 34.544 29.668 34.456C29.548 34.36 29.396 34.284 29.212 34.228C29.036 34.164 28.824 34.132 28.576 34.132C28.328 34.132 28.112 34.164 27.928 34.228C27.752 34.284 27.604 34.36 27.484 34.456C27.364 34.544 27.272 34.648 27.208 34.768C27.152 34.888 27.124 35.008 27.124 35.128V35.392C27.124 35.512 27.152 35.632 27.208 35.752C27.272 35.872 27.364 35.98 27.484 36.076C27.604 36.164 27.756 36.24 27.94 36.304C28.124 36.36 28.336 36.388 28.576 36.388Z" fill="#FF8A3A"/>
<rect x="1" y="1" width="48" height="48" rx="24" stroke="#FF8A3A" stroke-width="1.5"/>
</svg>
