<svg width="100%" height="100%" viewBox="0 0 57 56" fill="none" xmlns="http://www.w3.org/2000/svg">
<mask id="mask0_83_897" style="mask-type:alpha" maskUnits="userSpaceOnUse" x="0" y="0" width="57" height="56">
<rect x="0.5" width="56" height="56" fill="#D9D9D9"/>
</mask>
<g mask="url(#mask0_83_897)">
<path d="M28.5 51.3333C24.3778 51.3333 21.0139 50.6819 18.4083 49.3791C15.8028 48.0764 14.5 46.3944 14.5 44.3333C14.5 42.9722 15.0639 41.7861 16.1917 40.775C17.3194 39.7639 18.875 38.9666 20.8583 38.3833L22.2 42.8166C21.5389 43.0111 20.9361 43.2541 20.3917 43.5458C19.8472 43.8375 19.4778 44.1 19.2833 44.3333C19.7889 44.9555 20.9556 45.5 22.7833 45.9666C24.6111 46.4333 26.5167 46.6666 28.5 46.6666C30.4833 46.6666 32.3986 46.4333 34.2458 45.9666C36.0931 45.5 37.2694 44.9555 37.775 44.3333C37.5806 44.1 37.2111 43.8375 36.6667 43.5458C36.1222 43.2541 35.5194 43.0111 34.8583 42.8166L36.2 38.3833C38.1833 38.9666 39.7292 39.7639 40.8375 40.775C41.9458 41.7861 42.5 42.9722 42.5 44.3333C42.5 46.3944 41.1972 48.0764 38.5917 49.3791C35.9861 50.6819 32.6222 51.3333 28.5 51.3333ZM28.5 44.3333C28.0722 44.3333 27.6833 44.2069 27.3333 43.9541C26.9833 43.7014 26.7306 43.3611 26.575 42.9333C25.6806 40.1722 24.5528 37.8583 23.1917 35.9916C21.8306 34.125 20.5083 32.3361 19.225 30.625C17.9806 28.9138 16.9014 27.1444 15.9875 25.3166C15.0736 23.4888 14.6167 21.2333 14.6167 18.55C14.6167 14.6611 15.9583 11.375 18.6417 8.69163C21.325 6.00829 24.6111 4.66663 28.5 4.66663C32.3889 4.66663 35.675 6.00829 38.3583 8.69163C41.0417 11.375 42.3833 14.6611 42.3833 18.55C42.3833 21.2333 41.9361 23.4888 41.0417 25.3166C40.1472 27.1444 39.0583 28.9138 37.775 30.625C36.5306 32.3361 35.2181 34.125 33.8375 35.9916C32.4569 37.8583 31.3194 40.1722 30.425 42.9333C30.2694 43.3611 30.0167 43.7014 29.6667 43.9541C29.3167 44.2069 28.9278 44.3333 28.5 44.3333ZM28.5 23.5083C29.8611 23.5083 31.0278 23.0222 32 22.05C32.9722 21.0777 33.4583 19.9111 33.4583 18.55C33.4583 17.1888 32.9722 16.0222 32 15.05C31.0278 14.0777 29.8611 13.5916 28.5 13.5916C27.1389 13.5916 25.9722 14.0777 25 15.05C24.0278 16.0222 23.5417 17.1888 23.5417 18.55C23.5417 19.9111 24.0278 21.0777 25 22.05C25.9722 23.0222 27.1389 23.5083 28.5 23.5083Z" fill="currentColor"/>
</g>
</svg>
