<svg width="50" height="50" viewBox="0 0 50 50" fill="none" xmlns="http://www.w3.org/2000/svg">
<rect x="1" y="1" width="48" height="48" rx="24" fill="white"/>
<path d="M30 17C30 19.7614 27.7614 22 25 22C22.2386 22 20 19.7614 20 17C20 14.2386 22.2386 12 25 12C27.7614 12 30 14.2386 30 17Z" stroke="#799EFF" stroke-width="2"/>
<circle cx="25" cy="17" r="8" stroke="#799EFF" stroke-width="2"/>
<path d="M28 17C28 18.6569 26.6569 20 25 20C23.3431 20 22 18.6569 22 17C22 15.3431 23.3431 14 25 14C26.6569 14 28 15.3431 28 17Z" fill="#799EFF"/>
<path d="M32.0002 24V17H34.0002V24H32.0002Z" fill="#799EFF"/>
<path d="M34 25H32C32 25 31.8696 26.0956 32.25 27H33.75C34.1304 26.0956 34 25 34 25Z" fill="#799EFF"/>
<path d="M22.5621 41.68V30.616H23.7501V41.68H22.5621ZM15.3861 38.776V31.516H16.5621V34.132H19.3581V31.516H20.5341V38.776H15.3861ZM16.5621 37.756H19.3581V35.14H16.5621V37.756ZM27.34 39.4C27.34 39.112 27.416 38.84 27.568 38.584C27.72 38.328 27.94 38.104 28.228 37.912C28.516 37.72 28.864 37.568 29.272 37.456C29.688 37.344 30.156 37.288 30.676 37.288C31.196 37.288 31.66 37.344 32.068 37.456C32.484 37.568 32.836 37.72 33.124 37.912C33.412 38.104 33.632 38.328 33.784 38.584C33.936 38.84 34.012 39.112 34.012 39.4V39.88C34.012 40.168 33.936 40.44 33.784 40.696C33.632 40.952 33.412 41.176 33.124 41.368C32.836 41.56 32.484 41.712 32.068 41.824C31.66 41.936 31.196 41.992 30.676 41.992C30.156 41.992 29.688 41.936 29.272 41.824C28.864 41.712 28.516 41.56 28.228 41.368C27.94 41.176 27.72 40.952 27.568 40.696C27.416 40.44 27.34 40.168 27.34 39.88V39.4ZM28.48 34.432C28.448 34.536 28.352 34.68 28.192 34.864C28.032 35.048 27.86 35.224 27.676 35.392C27.428 35.624 27.14 35.88 26.812 36.16C26.484 36.432 26.16 36.696 25.84 36.952L25.132 36.112C25.516 35.816 25.88 35.52 26.224 35.224C26.576 34.928 26.856 34.676 27.064 34.468C27.216 34.316 27.34 34.172 27.436 34.036C27.54 33.892 27.62 33.748 27.676 33.604C27.74 33.452 27.784 33.292 27.808 33.124C27.832 32.956 27.844 32.768 27.844 32.56V31.108H29.044V32.512C29.044 32.696 29.048 32.864 29.056 33.016C29.072 33.16 29.1 33.296 29.14 33.424C29.18 33.552 29.24 33.68 29.32 33.808C29.408 33.928 29.524 34.052 29.668 34.18C29.948 34.436 30.252 34.7 30.58 34.972C30.916 35.244 31.264 35.508 31.624 35.764L30.928 36.592C30.616 36.36 30.316 36.128 30.028 35.896C29.748 35.656 29.464 35.416 29.176 35.176C28.992 35.024 28.84 34.884 28.72 34.756C28.608 34.628 28.532 34.52 28.492 34.432H28.48ZM32.848 39.472C32.848 39.328 32.796 39.184 32.692 39.04C32.596 38.888 32.452 38.756 32.26 38.644C32.076 38.532 31.848 38.44 31.576 38.368C31.312 38.296 31.012 38.26 30.676 38.26C30.34 38.26 30.036 38.296 29.764 38.368C29.5 38.44 29.272 38.532 29.08 38.644C28.896 38.756 28.752 38.888 28.648 39.04C28.552 39.184 28.504 39.328 28.504 39.472V39.808C28.504 39.952 28.552 40.096 28.648 40.24C28.752 40.392 28.896 40.524 29.08 40.636C29.272 40.748 29.5 40.84 29.764 40.912C30.036 40.984 30.34 41.02 30.676 41.02C31.012 41.02 31.312 40.984 31.576 40.912C31.848 40.84 32.076 40.748 32.26 40.636C32.452 40.524 32.596 40.392 32.692 40.24C32.796 40.096 32.848 39.952 32.848 39.808V39.472ZM35.536 34.324H33.964V37.144H32.788V30.616H33.964V33.292H35.536V34.324Z" fill="#799EFF"/>
<rect x="1" y="1" width="48" height="48" rx="24" stroke="#799EFF" stroke-width="1.5"/>
</svg>
