<svg width="50" height="50" viewBox="0 0 50 50" fill="none" xmlns="http://www.w3.org/2000/svg">
<rect x="1" y="1" width="48" height="48" rx="24" fill="white"/>
<mask id="mask0_341_5396" style="mask-type:alpha" maskUnits="userSpaceOnUse" x="13" y="5" width="24" height="24">
<rect x="13" y="5" width="24" height="24" fill="#D9D9D9"/>
</mask>
<g mask="url(#mask0_341_5396)">
<path fill-rule="evenodd" clip-rule="evenodd" d="M20 27C19.1667 27 18.4584 26.7083 17.875 26.125C17.2917 25.5417 17 24.8333 17 24H16C15.45 24 14.9792 23.8042 14.5875 23.4125C14.1959 23.0208 14 22.55 14 22L14 19H26V11H29V10C29 9.71667 29.0959 9.47917 29.2875 9.2875C29.4792 9.09583 29.7167 9 30 9H31C31.2834 9 31.5209 9.09583 31.7125 9.2875C31.9042 9.47917 32 9.71667 32 10V11H32.55C32.9834 11 33.375 11.125 33.725 11.375C34.075 11.625 34.3167 11.9583 34.4501 12.375L35.9 16.675C35.9334 16.775 35.9584 16.8792 35.975 16.9875C35.9917 17.0958 36 17.2083 36 17.325V24H33C33 24.8333 32.7084 25.5417 32.125 26.125C31.5417 26.7083 30.8334 27 30 27C29.1667 27 28.4584 26.7083 27.875 26.125C27.2917 25.5417 27 24.8333 27 24H23C23 24.8333 22.7084 25.5417 22.125 26.125C21.5417 26.7083 20.8334 27 20 27ZM20.7125 24.7125C20.5209 24.9042 20.2834 25 20 25C19.7167 25 19.4792 24.9042 19.2875 24.7125C19.0959 24.5208 19 24.2833 19 24C19 23.7167 19.0959 23.4792 19.2875 23.2875C19.4792 23.0958 19.7167 23 20 23C20.2834 23 20.5209 23.0958 20.7125 23.2875C20.9042 23.4792 21 23.7167 21 24C21 24.2833 20.9042 24.5208 20.7125 24.7125ZM30.7125 24.7125C30.5209 24.9042 30.2834 25 30 25C29.7167 25 29.4792 24.9042 29.2875 24.7125C29.0959 24.5208 29 24.2833 29 24C29 23.7167 29.0959 23.4792 29.2875 23.2875C29.4792 23.0958 29.7167 23 30 23C30.2834 23 30.5209 23.0958 30.7125 23.2875C30.9042 23.4792 31 23.7167 31 24C31 24.2833 30.9042 24.5208 30.7125 24.7125ZM33.9 17H28V13H32.55L33.9 17Z" fill="#FF8A3A"/>
<path d="M15.3672 16.1328C15.612 16.3776 15.9062 16.5 16.25 16.5C16.5938 16.5 16.888 16.3776 17.1328 16.1328C17.3776 15.888 17.5 15.5938 17.5 15.25C17.5 14.9062 17.3776 14.612 17.1328 14.3672C16.888 14.1224 16.5938 14 16.25 14C15.9062 14 15.612 14.1224 15.3672 14.3672C15.1224 14.612 15 14.9062 15 15.25C15 15.5938 15.1224 15.888 15.3672 16.1328Z" fill="#FF8A3A"/>
<path d="M18.8672 16.1328C19.112 16.3776 19.4062 16.5 19.75 16.5C20.0938 16.5 20.388 16.3776 20.6328 16.1328C20.8776 15.888 21 15.5938 21 15.25C21 14.9062 20.8776 14.612 20.6328 14.3672C20.388 14.1224 20.0938 14 19.75 14C19.4062 14 19.112 14.1224 18.8672 14.3672C18.6224 14.612 18.5 14.9062 18.5 15.25C18.5 15.5938 18.6224 15.888 18.8672 16.1328Z" fill="#FF8A3A"/>
<path d="M22.3672 16.1328C22.612 16.3776 22.9062 16.5 23.25 16.5C23.5938 16.5 23.888 16.3776 24.1328 16.1328C24.3776 15.888 24.5 15.5938 24.5 15.25C24.5 14.9062 24.3776 14.612 24.1328 14.3672C23.888 14.1224 23.5938 14 23.25 14C22.9062 14 22.612 14.1224 22.3672 14.3672C22.1224 14.612 22 14.9062 22 15.25C22 15.5938 22.1224 15.888 22.3672 16.1328Z" fill="#FF8A3A"/>
</g>
<path d="M15.0501 38.32C15.6901 37.944 16.2301 37.612 16.6701 37.324C17.1181 37.028 17.4901 36.76 17.7861 36.52C18.0821 36.272 18.3141 36.044 18.4821 35.836C18.6501 35.62 18.7741 35.408 18.8541 35.2C18.9421 34.984 18.9941 34.76 19.0101 34.528C19.0341 34.296 19.0461 34.036 19.0461 33.748V32.656H15.2661V31.636H20.2221V33.76C20.2221 34.12 20.2101 34.448 20.1861 34.744C20.1701 35.032 20.1141 35.308 20.0181 35.572C19.9221 35.828 19.7781 36.084 19.5861 36.34C19.4021 36.588 19.1381 36.856 18.7941 37.144C18.4581 37.432 18.0341 37.748 17.5221 38.092C17.0181 38.436 16.4021 38.828 15.6741 39.268L15.0501 38.32ZM22.5621 41.68V30.616H23.7501V41.68H22.5621ZM27.052 32.524V34.624H30.7V35.632H27.052V37.876H28.096C28.496 37.876 28.86 37.872 29.188 37.864C29.516 37.856 29.824 37.844 30.112 37.828C30.408 37.804 30.696 37.78 30.976 37.756C31.264 37.724 31.564 37.684 31.876 37.636L32.008 38.644C31.728 38.684 31.444 38.72 31.156 38.752C30.876 38.784 30.568 38.812 30.232 38.836C29.904 38.852 29.54 38.868 29.14 38.884C28.748 38.892 28.304 38.896 27.808 38.896H25.876V31.504H30.94V32.524H27.052ZM35.644 35.692H33.94V41.68H32.752V30.616H33.94V34.66H35.644V35.692Z" fill="#FF8A3A"/>
<rect x="1" y="1" width="48" height="48" rx="24" stroke="#FF8A3A" stroke-width="1.5"/>
</svg>
