<svg width="100%" height="100%" viewBox="0 0 28 28" fill="none" xmlns="http://www.w3.org/2000/svg">
<g id="fmd_bad">
<mask id="mask0_60_1465" style="mask-type:alpha" maskUnits="userSpaceOnUse" x="0" y="0" width="28" height="28">
<rect id="Bounding box" width="28" height="28" fill="#D9D9D9"/>
</mask>
<g mask="url(#mask0_60_1465)">
<path id="fmd_bad_2" d="M12.8333 12.8334H15.1667V7.00004H12.8333V12.8334ZM14 17.5C14.3305 17.5 14.6076 17.3882 14.8312 17.1646C15.0549 16.941 15.1667 16.6639 15.1667 16.3334C15.1667 16.0028 15.0549 15.7257 14.8312 15.5021C14.6076 15.2785 14.3305 15.1667 14 15.1667C13.6694 15.1667 13.3924 15.2785 13.1687 15.5021C12.9451 15.7257 12.8333 16.0028 12.8333 16.3334C12.8333 16.6639 12.9451 16.941 13.1687 17.1646C13.3924 17.3882 13.6694 17.5 14 17.5ZM14 22.575C16.3722 20.3973 18.1319 18.4188 19.2792 16.6396C20.4264 14.8605 21 13.2806 21 11.9C21 9.7806 20.3243 8.04518 18.9729 6.69379C17.6215 5.3424 15.9639 4.66671 14 4.66671C12.0361 4.66671 10.3785 5.3424 9.02707 6.69379C7.67568 8.04518 6.99999 9.7806 6.99999 11.9C6.99999 13.2806 7.5736 14.8605 8.72082 16.6396C9.86805 18.4188 11.6278 20.3973 14 22.575ZM14 25.6667C10.8694 23.0028 8.53124 20.5285 6.98541 18.2438C5.43957 15.9591 4.66666 13.8445 4.66666 11.9C4.66666 8.98337 5.60485 6.65976 7.48124 4.92921C9.35763 3.19865 11.5305 2.33337 14 2.33337C16.4694 2.33337 18.6424 3.19865 20.5187 4.92921C22.3951 6.65976 23.3333 8.98337 23.3333 11.9C23.3333 13.8445 22.5604 15.9591 21.0146 18.2438C19.4687 20.5285 17.1305 23.0028 14 25.6667Z" fill="currentColor"/>
</g>
</g>
</svg>
