<svg width="100%" height="100%" viewBox="0 0 20 20" fill="none" xmlns="http://www.w3.org/2000/svg">
<g id="fire_truck">
<mask id="mask0_83_877" style="mask-type:alpha" maskUnits="userSpaceOnUse" x="0" y="0" width="20" height="20">
<rect id="Bounding box" width="20" height="20" fill="#D9D9D9"/>
</mask>
<g mask="url(#mask0_83_877)">
<path id="fire_truck_2" d="M5.83325 17.5C5.13881 17.5 4.54853 17.2569 4.06242 16.7708C3.57631 16.2847 3.33325 15.6944 3.33325 15H0.833252V9.16667H9.99992V4.16667H13.3333V2.5H15.8333V4.16667H17.4791L19.1666 9.14583V15H16.6666C16.6666 15.6944 16.4235 16.2847 15.9374 16.7708C15.4513 17.2569 14.861 17.5 14.1666 17.5C13.4721 17.5 12.8819 17.2569 12.3958 16.7708C11.9096 16.2847 11.6666 15.6944 11.6666 15H8.33325C8.33325 15.6944 8.0902 16.2847 7.60409 16.7708C7.11797 17.2569 6.5277 17.5 5.83325 17.5ZM5.83325 15.8333C6.06936 15.8333 6.26728 15.7535 6.427 15.5938C6.58672 15.434 6.66659 15.2361 6.66659 15C6.66659 14.7639 6.58672 14.566 6.427 14.4062C6.26728 14.2465 6.06936 14.1667 5.83325 14.1667C5.59714 14.1667 5.39922 14.2465 5.2395 14.4062C5.07978 14.566 4.99992 14.7639 4.99992 15C4.99992 15.2361 5.07978 15.434 5.2395 15.5938C5.39922 15.7535 5.59714 15.8333 5.83325 15.8333ZM14.1666 15.8333C14.4027 15.8333 14.6006 15.7535 14.7603 15.5938C14.9201 15.434 14.9999 15.2361 14.9999 15C14.9999 14.7639 14.9201 14.566 14.7603 14.4062C14.6006 14.2465 14.4027 14.1667 14.1666 14.1667C13.9305 14.1667 13.7326 14.2465 13.5728 14.4062C13.4131 14.566 13.3333 14.7639 13.3333 15C13.3333 15.2361 13.4131 15.434 13.5728 15.5938C13.7326 15.7535 13.9305 15.8333 14.1666 15.8333ZM11.6666 9.16667H17.4166L16.2916 5.83333H11.6666V9.16667ZM0.833252 8.33333V7.08333H1.66659V5.41667H0.833252V4.16667H9.16659V5.41667H8.33325V7.08333H9.16659V8.33333H0.833252ZM2.91659 7.08333H4.37492V5.41667H2.91659V7.08333ZM5.62492 7.08333H7.08325V5.41667H5.62492V7.08333Z" fill="currentColor"/>
</g>
</g>
</svg>
