<svg width="50" height="50" viewBox="0 0 50 50" fill="none" xmlns="http://www.w3.org/2000/svg">
<rect x="1" y="1" width="48" height="48" rx="24" fill="white"/>
<mask id="mask0_341_5411" style="mask-type:alpha" maskUnits="userSpaceOnUse" x="13" y="5" width="24" height="24">
<rect x="13" y="5" width="24" height="24" fill="#D9D9D9"/>
</mask>
<g mask="url(#mask0_341_5411)">
<path d="M26.0625 5.5C26.8958 5.5 27.5938 5.80833 28.1562 6.425C28.7188 7.04167 29 7.775 29 8.625C29 8.775 28.9917 8.92292 28.975 9.06875C28.9583 9.21458 28.9292 9.35833 28.8875 9.5H25.7625L24.9125 8.225C24.8708 8.15833 24.8125 8.10417 24.7375 8.0625C24.6625 8.02083 24.5833 8 24.5 8C24.3917 8 24.2938 8.03333 24.2063 8.1C24.1188 8.16667 24.0583 8.25 24.025 8.35L23.35 10.375L22.9125 9.725C22.8708 9.65833 22.8125 9.60417 22.7375 9.5625C22.6625 9.52083 22.5833 9.5 22.5 9.5H19.1125C19.0708 9.35833 19.0417 9.21458 19.025 9.06875C19.0083 8.92292 19 8.77917 19 8.6375C19 7.77917 19.2792 7.04167 19.8375 6.425C20.3958 5.80833 21.0917 5.5 21.925 5.5C22.325 5.5 22.7021 5.57917 23.0563 5.7375C23.4104 5.89583 23.725 6.11667 24 6.4C24.2667 6.11667 24.5771 5.89583 24.9313 5.7375C25.2854 5.57917 25.6625 5.5 26.0625 5.5ZM24 14.5C23.85 14.5 23.7062 14.4729 23.5687 14.4187C23.4313 14.3646 23.3083 14.2833 23.2 14.175L19.85 10.8125C19.8 10.7625 19.7542 10.7125 19.7125 10.6625C19.6708 10.6125 19.6292 10.5583 19.5875 10.5H22.225L23.075 11.775C23.1167 11.8417 23.175 11.8958 23.25 11.9375C23.325 11.9792 23.4042 12 23.4875 12C23.5958 12 23.6958 11.9667 23.7875 11.9C23.8792 11.8333 23.9417 11.75 23.975 11.65L24.65 9.625L25.075 10.275C25.125 10.3417 25.1875 10.3958 25.2625 10.4375C25.3375 10.4792 25.4167 10.5 25.5 10.5H28.4L28.15 10.8L24.7875 14.175C24.6792 14.2833 24.5583 14.3646 24.425 14.4187C24.2917 14.4729 24.15 14.5 24 14.5Z" fill="#1DCE00"/>
<path d="M19 29C18.1667 29 17.4583 28.7083 16.875 28.125C16.2917 27.5417 16 26.8333 16 26H14V17C14 16.45 14.1958 15.9792 14.5875 15.5875C14.9792 15.1958 15.45 15 16 15H30L36 21V26H34C34 26.8333 33.7083 27.5417 33.125 28.125C32.5417 28.7083 31.8333 29 31 29C30.1667 29 29.4583 28.7083 28.875 28.125C28.2917 27.5417 28 26.8333 28 26H22C22 26.8333 21.7083 27.5417 21.125 28.125C20.5417 28.7083 19.8333 29 19 29ZM28 20H32L29 17H28V20ZM22 20H26V17H22V20ZM16 20H20V17H16V20ZM19 27.25C19.35 27.25 19.6458 27.1292 19.8875 26.8875C20.1292 26.6458 20.25 26.35 20.25 26C20.25 25.65 20.1292 25.3542 19.8875 25.1125C19.6458 24.8708 19.35 24.75 19 24.75C18.65 24.75 18.3542 24.8708 18.1125 25.1125C17.8708 25.3542 17.75 25.65 17.75 26C17.75 26.35 17.8708 26.6458 18.1125 26.8875C18.3542 27.1292 18.65 27.25 19 27.25ZM31 27.25C31.35 27.25 31.6458 27.1292 31.8875 26.8875C32.1292 26.6458 32.25 26.35 32.25 26C32.25 25.65 32.1292 25.3542 31.8875 25.1125C31.6458 24.8708 31.35 24.75 31 24.75C30.65 24.75 30.3542 24.8708 30.1125 25.1125C29.8708 25.3542 29.75 25.65 29.75 26C29.75 26.35 29.8708 26.6458 30.1125 26.8875C30.3542 27.1292 30.65 27.25 31 27.25Z" fill="#1DCE00"/>
</g>
<path d="M24.7341 36.28V37.288H20.2581V41.68H19.0581V37.288H14.5821V36.28H21.6621C21.7901 35.688 21.8781 35.128 21.9261 34.6C21.9821 34.064 22.0101 33.528 22.0101 32.992V32.344H15.8541V31.3H23.1981V32.716C23.1981 33.292 23.1701 33.88 23.1141 34.48C23.0581 35.08 22.9741 35.68 22.8621 36.28H24.7341ZM33.964 37.012V41.68H26.716V37.012H27.892V38.32H32.788V37.012H33.964ZM35.416 35.02V36.028H25.264V35.02H32.464C32.552 34.588 32.612 34.172 32.644 33.772C32.676 33.372 32.692 32.996 32.692 32.644V32.032H26.584V31.024H33.892V32.692C33.892 33.012 33.876 33.38 33.844 33.796C33.812 34.204 33.756 34.612 33.676 35.02H35.416ZM32.788 40.672V39.292H27.892V40.672H32.788Z" fill="#1DCE00"/>
<rect x="1" y="1" width="48" height="48" rx="24" stroke="#1DCE00" stroke-width="1.5"/>
</svg>
