<svg xmlns="http://www.w3.org/2000/svg" width="100%" height="100%" viewBox="0 0 20 20" fill="none">
  <path fill-rule="evenodd" clip-rule="evenodd" d="M2.399 2.399a2.5 2.5 0 0 1 1.768-.732h2.5a.833.833 0 0 1 0 1.666h-2.5a.833.833 0 0 0-.834.834v2.5a.833.833 0 0 1-1.666 0v-2.5a2.5 2.5 0 0 1 .732-1.768ZM12.5 2.5c0-.46.373-.833.833-.833h2.5a2.5 2.5 0 0 1 2.5 2.5v2.5a.833.833 0 0 1-1.666 0v-2.5a.833.833 0 0 0-.834-.834h-2.5A.833.833 0 0 1 12.5 2.5Zm-10 10c.46 0 .833.373.833.833v2.5a.833.833 0 0 0 .834.834h2.5a.833.833 0 0 1 0 1.666h-2.5a2.5 2.5 0 0 1-2.5-2.5v-2.5c0-.46.373-.833.833-.833Zm15 0c.46 0 .833.373.833.833v2.5a2.5 2.5 0 0 1-2.5 2.5h-2.5a.833.833 0 1 1 0-1.666h2.5a.833.833 0 0 0 .834-.834v-2.5c0-.46.373-.833.833-.833Z" fill="currentColor"/>
</svg>
