<svg width="50" height="50" viewBox="0 0 50 50" fill="none" xmlns="http://www.w3.org/2000/svg">
<rect x="1" y="1" width="48" height="48" rx="24" fill="white"/>
<mask id="mask0_341_5423" style="mask-type:alpha" maskUnits="userSpaceOnUse" x="13" y="5" width="24" height="24">
<rect x="13" y="5" width="24" height="24" fill="#D9D9D9"/>
</mask>
<g mask="url(#mask0_341_5423)">
<path d="M17 27V25H19V22H18C17.45 22 16.9792 21.8042 16.5875 21.4125C16.1958 21.0208 16 20.55 16 20V18C16 17.45 16.1958 16.9792 16.5875 16.5875C16.9792 16.1958 17.45 16 18 16H19V13H17V11H19.35C19.7667 9.83333 20.4875 8.875 21.5125 8.125C22.5375 7.375 23.7 7 25 7C26.3 7 27.4625 7.375 28.4875 8.125C29.5125 8.875 30.2333 9.83333 30.65 11H33V13H31V16H32C32.55 16 33.0208 16.1958 33.4125 16.5875C33.8042 16.9792 34 17.45 34 18V20C34 20.55 33.8042 21.0208 33.4125 21.4125C33.0208 21.8042 32.55 22 32 22H31V25H33V27H17ZM25 22.5C25.9667 22.5 26.7917 22.1583 27.475 21.475C28.1583 20.7917 28.5 19.9667 28.5 19C28.5 18.0333 28.1583 17.2083 27.475 16.525C26.7917 15.8417 25.9667 15.5 25 15.5C24.0333 15.5 23.2083 15.8417 22.525 16.525C21.8417 17.2083 21.5 18.0333 21.5 19C21.5 19.9667 21.8417 20.7917 22.525 21.475C23.2083 22.1583 24.0333 22.5 25 22.5ZM25 20.5C24.5833 20.5 24.2292 20.3542 23.9375 20.0625C23.6458 19.7708 23.5 19.4167 23.5 19C23.5 18.5833 23.6458 18.2292 23.9375 17.9375C24.2292 17.6458 24.5833 17.5 25 17.5C25.4167 17.5 25.7708 17.6458 26.0625 17.9375C26.3542 18.2292 26.5 18.5833 26.5 19C26.5 19.4167 26.3542 19.7708 26.0625 20.0625C25.7708 20.3542 25.4167 20.5 25 20.5Z" fill="#799EFF"/>
</g>
<path d="M18.2661 36.232C18.2101 36.368 18.1261 36.508 18.0141 36.652C17.9021 36.796 17.7501 36.972 17.5581 37.18C17.3101 37.452 17.0341 37.744 16.7301 38.056C16.4261 38.36 16.0701 38.7 15.6621 39.076L14.8821 38.272C15.2421 37.944 15.5701 37.632 15.8661 37.336C16.1701 37.04 16.4581 36.74 16.7301 36.436C16.9301 36.22 17.0901 36.024 17.2101 35.848C17.3301 35.672 17.4221 35.5 17.4861 35.332C17.5501 35.164 17.5941 34.992 17.6181 34.816C17.6421 34.64 17.6541 34.44 17.6541 34.216V32.644H15.2781V31.612H21.1701V32.644H18.8541V34.216C18.8541 34.456 18.8661 34.664 18.8901 34.84C18.9141 35.016 18.9581 35.184 19.0221 35.344C19.0941 35.504 19.1941 35.672 19.3221 35.848C19.4501 36.016 19.6221 36.216 19.8381 36.448C20.0941 36.728 20.3541 36.996 20.6181 37.252C20.8901 37.508 21.2061 37.792 21.5661 38.104L20.7861 38.908C20.3781 38.532 20.0381 38.212 19.7661 37.948C19.4941 37.676 19.2421 37.416 19.0101 37.168C18.8421 36.984 18.6901 36.812 18.5541 36.652C18.4181 36.492 18.3261 36.352 18.2781 36.232H18.2661ZM22.6701 41.68V30.616H23.8581V41.68H22.6701ZM27.34 39.4C27.34 39.112 27.416 38.84 27.568 38.584C27.72 38.328 27.94 38.104 28.228 37.912C28.516 37.72 28.864 37.568 29.272 37.456C29.688 37.344 30.156 37.288 30.676 37.288C31.196 37.288 31.66 37.344 32.068 37.456C32.484 37.568 32.836 37.72 33.124 37.912C33.412 38.104 33.632 38.328 33.784 38.584C33.936 38.84 34.012 39.112 34.012 39.4V39.88C34.012 40.168 33.936 40.44 33.784 40.696C33.632 40.952 33.412 41.176 33.124 41.368C32.836 41.56 32.484 41.712 32.068 41.824C31.66 41.936 31.196 41.992 30.676 41.992C30.156 41.992 29.688 41.936 29.272 41.824C28.864 41.712 28.516 41.56 28.228 41.368C27.94 41.176 27.72 40.952 27.568 40.696C27.416 40.44 27.34 40.168 27.34 39.88V39.4ZM28.48 34.432C28.448 34.536 28.352 34.68 28.192 34.864C28.032 35.048 27.86 35.224 27.676 35.392C27.428 35.624 27.14 35.88 26.812 36.16C26.484 36.432 26.16 36.696 25.84 36.952L25.132 36.112C25.516 35.816 25.88 35.52 26.224 35.224C26.576 34.928 26.856 34.676 27.064 34.468C27.216 34.316 27.34 34.172 27.436 34.036C27.54 33.892 27.62 33.748 27.676 33.604C27.74 33.452 27.784 33.292 27.808 33.124C27.832 32.956 27.844 32.768 27.844 32.56V31.108H29.044V32.512C29.044 32.696 29.048 32.864 29.056 33.016C29.072 33.16 29.1 33.296 29.14 33.424C29.18 33.552 29.24 33.68 29.32 33.808C29.408 33.928 29.524 34.052 29.668 34.18C29.948 34.436 30.252 34.7 30.58 34.972C30.916 35.244 31.264 35.508 31.624 35.764L30.928 36.592C30.616 36.36 30.316 36.128 30.028 35.896C29.748 35.656 29.464 35.416 29.176 35.176C28.992 35.024 28.84 34.884 28.72 34.756C28.608 34.628 28.532 34.52 28.492 34.432H28.48ZM32.848 39.472C32.848 39.328 32.796 39.184 32.692 39.04C32.596 38.888 32.452 38.756 32.26 38.644C32.076 38.532 31.848 38.44 31.576 38.368C31.312 38.296 31.012 38.26 30.676 38.26C30.34 38.26 30.036 38.296 29.764 38.368C29.5 38.44 29.272 38.532 29.08 38.644C28.896 38.756 28.752 38.888 28.648 39.04C28.552 39.184 28.504 39.328 28.504 39.472V39.808C28.504 39.952 28.552 40.096 28.648 40.24C28.752 40.392 28.896 40.524 29.08 40.636C29.272 40.748 29.5 40.84 29.764 40.912C30.036 40.984 30.34 41.02 30.676 41.02C31.012 41.02 31.312 40.984 31.576 40.912C31.848 40.84 32.076 40.748 32.26 40.636C32.452 40.524 32.596 40.392 32.692 40.24C32.796 40.096 32.848 39.952 32.848 39.808V39.472ZM35.536 34.324H33.964V37.144H32.788V30.616H33.964V33.292H35.536V34.324Z" fill="#799EFF"/>
<rect x="1" y="1" width="48" height="48" rx="24" stroke="#799EFF" stroke-width="1.5"/>
</svg>
