<svg width="100%" height="100%" viewBox="0 0 25 24" fill="none" xmlns="http://www.w3.org/2000/svg">
<g id="imagesmode">
<mask id="mask0_108_15" style="mask-type:alpha" maskUnits="userSpaceOnUse" x="0" y="0" width="25" height="24">
<rect id="Bounding box" x="0.666656" width="24" height="24" fill="#D9D9D9"/>
</mask>
<g mask="url(#mask0_108_15)">
<path id="imagesmode_2" d="M6.66666 17H18.6667L14.9167 12L11.9167 16L9.66666 13L6.66666 17ZM3.66666 21V3H21.6667V21H3.66666ZM9.16666 10C9.58332 10 9.93749 9.85417 10.2292 9.5625C10.5208 9.27083 10.6667 8.91667 10.6667 8.5C10.6667 8.08333 10.5208 7.72917 10.2292 7.4375C9.93749 7.14583 9.58332 7 9.16666 7C8.74999 7 8.39582 7.14583 8.10416 7.4375C7.81249 7.72917 7.66666 8.08333 7.66666 8.5C7.66666 8.91667 7.81249 9.27083 8.10416 9.5625C8.39582 9.85417 8.74999 10 9.16666 10Z" fill="currentColor"/>
</g>
</g>
</svg>
