<svg width="100%" height="100%" viewBox="0 0 16 16" fill="none" xmlns="http://www.w3.org/2000/svg">
<mask id="mask0_60_635" style="mask-type:alpha" maskUnits="userSpaceOnUse" x="0" y="0" width="16" height="16">
<rect width="16" height="16" fill="#D9D9D9"/>
</mask>
<g mask="url(#mask0_60_635)">
<path d="M7.99998 11.3333C8.18887 11.3333 8.3472 11.2694 8.47498 11.1416C8.60276 11.0139 8.66665 10.8555 8.66665 10.6666V7.99998C8.66665 7.81109 8.60276 7.65276 8.47498 7.52498C8.3472 7.3972 8.18887 7.33331 7.99998 7.33331C7.81109 7.33331 7.65276 7.3972 7.52498 7.52498C7.3972 7.65276 7.33331 7.81109 7.33331 7.99998V10.6666C7.33331 10.8555 7.3972 11.0139 7.52498 11.1416C7.65276 11.2694 7.81109 11.3333 7.99998 11.3333ZM7.99998 5.99998C8.18887 5.99998 8.3472 5.93609 8.47498 5.80831C8.60276 5.68053 8.66665 5.5222 8.66665 5.33331C8.66665 5.14442 8.60276 4.98609 8.47498 4.85831C8.3472 4.73054 8.18887 4.66665 7.99998 4.66665C7.81109 4.66665 7.65276 4.73054 7.52498 4.85831C7.3972 4.98609 7.33331 5.14442 7.33331 5.33331C7.33331 5.5222 7.3972 5.68053 7.52498 5.80831C7.65276 5.93609 7.81109 5.99998 7.99998 5.99998ZM7.99998 14.6666C7.07776 14.6666 6.21109 14.4916 5.39998 14.1416C4.58887 13.7916 3.88331 13.3166 3.28331 12.7166C2.68331 12.1166 2.20831 11.4111 1.85831 10.6C1.50831 9.78887 1.33331 8.9222 1.33331 7.99998C1.33331 7.07776 1.50831 6.21109 1.85831 5.39998C2.20831 4.58887 2.68331 3.88331 3.28331 3.28331C3.88331 2.68331 4.58887 2.20831 5.39998 1.85831C6.21109 1.50831 7.07776 1.33331 7.99998 1.33331C8.9222 1.33331 9.78887 1.50831 10.6 1.85831C11.4111 2.20831 12.1166 2.68331 12.7166 3.28331C13.3166 3.88331 13.7916 4.58887 14.1416 5.39998C14.4916 6.21109 14.6666 7.07776 14.6666 7.99998C14.6666 8.9222 14.4916 9.78887 14.1416 10.6C13.7916 11.4111 13.3166 12.1166 12.7166 12.7166C12.1166 13.3166 11.4111 13.7916 10.6 14.1416C9.78887 14.4916 8.9222 14.6666 7.99998 14.6666ZM7.99998 13.3333C9.48887 13.3333 10.75 12.8166 11.7833 11.7833C12.8166 10.75 13.3333 9.48887 13.3333 7.99998C13.3333 6.51109 12.8166 5.24998 11.7833 4.21665C10.75 3.18331 9.48887 2.66665 7.99998 2.66665C6.51109 2.66665 5.24998 3.18331 4.21665 4.21665C3.18331 5.24998 2.66665 6.51109 2.66665 7.99998C2.66665 9.48887 3.18331 10.75 4.21665 11.7833C5.24998 12.8166 6.51109 13.3333 7.99998 13.3333Z" fill="currentColor"/>
</g>
</svg>
