<svg xmlns="http://www.w3.org/2000/svg" width="current" height="current" viewBox="0 0 21 20" fill="none">
  <mask id="mask0_117_2960" style="mask-type:alpha" maskUnits="userSpaceOnUse" x="0" y="0" width="21" height="20">
    <rect x="0.625" width="20" height="20" fill="#D9D9D9"/>
  </mask>
  <g mask="url(#mask0_117_2960)">
    <path d="M3.95835 18.3333C3.50002 18.3333 3.10766 18.1701 2.78127 17.8437C2.45488 17.5173 2.29169 17.125 2.29169 16.6666V6.66663C2.29169 6.20829 2.45488 5.81593 2.78127 5.48954C3.10766 5.16315 3.50002 4.99996 3.95835 4.99996H7.29169V3.33329C7.29169 2.87496 7.45488 2.4826 7.78127 2.15621C8.10766 1.82982 8.50002 1.66663 8.95835 1.66663H12.2917C12.75 1.66663 13.1424 1.82982 13.4688 2.15621C13.7952 2.4826 13.9584 2.87496 13.9584 3.33329V4.99996H17.2917C17.75 4.99996 18.1424 5.16315 18.4688 5.48954C18.7952 5.81593 18.9584 6.20829 18.9584 6.66663V16.6666C18.9584 17.125 18.7952 17.5173 18.4688 17.8437C18.1424 18.1701 17.75 18.3333 17.2917 18.3333H3.95835ZM3.95835 16.6666H17.2917V6.66663H3.95835V16.6666ZM8.95835 4.99996H12.2917V3.33329H8.95835V4.99996ZM9.79169 12.5V15H11.4584V12.5H13.9584V10.8333H11.4584V8.33329H9.79169V10.8333H7.29169V12.5H9.79169Z" fill="#77d134"/>
  </g>
</svg>