<svg xmlns="http://www.w3.org/2000/svg" width="100%" height="100%" viewBox="0 0 16 16" fill="none">
  <mask id="a" style="mask-type:alpha" maskUnits="userSpaceOnUse" x="0" y="0" width="16" height="16">
    <path fill="#D9D9D9" d="M0 0h16v16H0z"/>
  </mask>
  <g mask="url(#a)">
    <path d="m13.2 15.067-2.017-2.017c-.277.178-.572.33-.883.458a6.33 6.33 0 0 1-.967.309V12.45c.156-.055.309-.111.459-.167.15-.055.291-.122.425-.2L8 9.867v3.466L4.667 10H2V6h2.133l-3.2-3.2.934-.933 12.266 12.266-.933.934Zm-.133-3.867-.967-.967c.189-.344.33-.705.425-1.083.094-.378.142-.767.142-1.167a4.574 4.574 0 0 0-.917-2.8 4.477 4.477 0 0 0-2.417-1.666V2.15c1.378.311 2.5 1.008 3.367 2.092.867 1.083 1.3 2.33 1.3 3.741a5.96 5.96 0 0 1-.242 1.7 5.866 5.866 0 0 1-.691 1.517Zm-2.234-2.233-1.5-1.5V5.3c.523.244.93.611 1.225 1.1a3.044 3.044 0 0 1 .275 2.567ZM8 6.133 6.267 4.4 8 2.667v3.466Z" fill="currentColor"/>
  </g>
</svg>
