<svg xmlns="http://www.w3.org/2000/svg" width="current" height="current" viewBox="0 0 21 20" fill="none">
  <mask id="a" style="mask-type:alpha" maskUnits="userSpaceOnUse" x="0" y="0" width="21" height="20">
    <path fill="#D9D9D9" d="M.875 0h20v20h-20z"/>
  </mask>
  <g mask="url(#a)">
    <path d="M5.875 11.667c-.458 0-.85-.163-1.177-.49A1.605 1.605 0 0 1 4.208 10c0-.458.164-.85.49-1.177.326-.326.719-.49 1.177-.49.458 0 .85.164 1.177.49.326.326.49.719.49 1.177 0 .458-.164.85-.49 1.177-.326.327-.719.49-1.177.49Zm5 0c-.458 0-.85-.163-1.177-.49A1.605 1.605 0 0 1 9.208 10c0-.458.164-.85.49-1.177.326-.326.719-.49 1.177-.49.458 0 .85.164 1.177.49.327.326.49.719.49 1.177 0 .458-.163.85-.49 1.177-.326.327-.719.49-1.177.49Zm5 0c-.458 0-.85-.163-1.177-.49a1.605 1.605 0 0 1-.49-1.177c0-.458.163-.85.49-1.177.326-.326.719-.49 1.177-.49.458 0 .85.164 1.177.49.326.326.49.719.49 1.177 0 .458-.164.85-.49 1.177-.326.327-.719.49-1.177.49Z" fill="#6c757d"/>
  </g>
</svg>
