<svg width="50" height="50" viewBox="0 0 50 50" fill="none" xmlns="http://www.w3.org/2000/svg">
<rect x="1" y="1" width="48" height="48" rx="24" fill="white"/>
<mask id="mask0_341_5417" style="mask-type:alpha" maskUnits="userSpaceOnUse" x="13" y="5" width="24" height="24">
<rect x="13" y="5" width="24" height="24" fill="#D9D9D9"/>
</mask>
<g mask="url(#mask0_341_5417)">
<path fill-rule="evenodd" clip-rule="evenodd" d="M20 27C19.1667 27 18.4584 26.7083 17.875 26.125C17.2917 25.5417 17 24.8333 17 24H16C15.45 24 14.9792 23.8042 14.5875 23.4125C14.1959 23.0208 14 22.55 14 22L14 19H26V11H29V10C29 9.71667 29.0959 9.47917 29.2875 9.2875C29.4792 9.09583 29.7167 9 30 9H31C31.2834 9 31.5209 9.09583 31.7125 9.2875C31.9042 9.47917 32 9.71667 32 10V11H32.55C32.9834 11 33.375 11.125 33.725 11.375C34.075 11.625 34.3167 11.9583 34.4501 12.375L35.9 16.675C35.9334 16.775 35.9584 16.8792 35.975 16.9875C35.9917 17.0958 36 17.2083 36 17.325V24H33C33 24.8333 32.7084 25.5417 32.125 26.125C31.5417 26.7083 30.8334 27 30 27C29.1667 27 28.4584 26.7083 27.875 26.125C27.2917 25.5417 27 24.8333 27 24H23C23 24.8333 22.7084 25.5417 22.125 26.125C21.5417 26.7083 20.8334 27 20 27ZM20.7125 24.7125C20.5209 24.9042 20.2834 25 20 25C19.7167 25 19.4792 24.9042 19.2875 24.7125C19.0959 24.5208 19 24.2833 19 24C19 23.7167 19.0959 23.4792 19.2875 23.2875C19.4792 23.0958 19.7167 23 20 23C20.2834 23 20.5209 23.0958 20.7125 23.2875C20.9042 23.4792 21 23.7167 21 24C21 24.2833 20.9042 24.5208 20.7125 24.7125ZM30.7125 24.7125C30.5209 24.9042 30.2834 25 30 25C29.7167 25 29.4792 24.9042 29.2875 24.7125C29.0959 24.5208 29 24.2833 29 24C29 23.7167 29.0959 23.4792 29.2875 23.2875C29.4792 23.0958 29.7167 23 30 23C30.2834 23 30.5209 23.0958 30.7125 23.2875C30.9042 23.4792 31 23.7167 31 24C31 24.2833 30.9042 24.5208 30.7125 24.7125ZM33.9 17H28V13H32.55L33.9 17Z" fill="#FF8A3A"/>
<path fill-rule="evenodd" clip-rule="evenodd" d="M14.5 17.5V13.5909C14.5 12.9864 14.6771 12.4614 15.0312 12.0159C15.3854 11.5705 15.8333 11.2735 16.375 11.125V9.77273C16.375 9.42273 16.4974 9.12311 16.7422 8.87386C16.987 8.62462 17.2812 8.5 17.625 8.5H21.375C21.7188 8.5 22.013 8.62462 22.2578 8.87386C22.5026 9.12311 22.625 9.42273 22.625 9.77273V11.125C23.1667 11.2735 23.6146 11.5705 23.9688 12.0159C24.3229 12.4614 24.5 12.9864 24.5 13.5909V17.5H14.5ZM18.875 11.0455H17.625V9.77273H21.375V11.0455H20.125C20.125 10.8652 20.0651 10.714 19.9453 10.592C19.8255 10.4701 19.6771 10.4091 19.5 10.4091C19.3229 10.4091 19.1745 10.4701 19.0547 10.592C18.9349 10.714 18.875 10.8652 18.875 11.0455Z" fill="#FF8A3A"/>
</g>
<path d="M23.8221 37.396V41.668H16.9221V37.396H23.8221ZM14.8701 35.236H15.9981V32.236H14.9421V31.264H21.0381V32.236H19.9941V35.152C20.2501 35.136 20.4941 35.12 20.7261 35.104C20.9581 35.088 21.1981 35.068 21.4461 35.044L21.5301 35.992C21.1541 36.024 20.7741 36.052 20.3901 36.076C20.0141 36.1 19.5741 36.124 19.0701 36.148C18.5741 36.164 17.9901 36.176 17.3181 36.184C16.6461 36.192 15.8301 36.2 14.8701 36.208V35.236ZM18.0981 40.66H22.6461V38.404H18.0981V40.66ZM22.6461 36.856V34.132H21.0141V33.112H22.6461V30.616H23.8221V36.856H22.6461ZM18.8541 35.2V32.236H17.1381V35.236L18.8541 35.2ZM34.36 36.136V37.12H26.32V36.136H27.868V32.548H26.404V31.564H34.264V32.548H32.824V36.136H34.36ZM35.416 39.196V40.204H25.264V39.196H35.416ZM29.056 36.136H31.636V32.548H29.056V36.136Z" fill="#FF8A3A"/>
<rect x="1" y="1" width="48" height="48" rx="24" stroke="#FF8A3A" stroke-width="1.5"/>
</svg>
