<svg width="100%" height="100%" viewBox="0 0 20 20" fill="none" xmlns="http://www.w3.org/2000/svg">
<g id="refresh">
<mask id="mask0_60_931" style="mask-type:alpha" maskUnits="userSpaceOnUse" x="0" y="0" width="20" height="20">
<rect id="Bounding box" width="20" height="20" fill="#D9D9D9"/>
</mask>
<g mask="url(#mask0_60_931)">
<path id="refresh_2" d="M9.99998 16.6667C8.13887 16.6667 6.56248 16.0208 5.27081 14.7292C3.97915 13.4375 3.33331 11.8611 3.33331 9.99999C3.33331 8.13888 3.97915 6.56249 5.27081 5.27083C6.56248 3.97916 8.13887 3.33333 9.99998 3.33333C10.9583 3.33333 11.875 3.53124 12.75 3.92708C13.625 4.32291 14.375 4.88888 15 5.62499V3.33333H16.6666V9.16666H10.8333V7.49999H14.3333C13.8889 6.72222 13.2812 6.11111 12.5104 5.66666C11.7396 5.22222 10.9028 4.99999 9.99998 4.99999C8.61109 4.99999 7.43054 5.48611 6.45831 6.45833C5.48609 7.43055 4.99998 8.61111 4.99998 9.99999C4.99998 11.3889 5.48609 12.5694 6.45831 13.5417C7.43054 14.5139 8.61109 15 9.99998 15C11.0694 15 12.0347 14.6944 12.8958 14.0833C13.7569 13.4722 14.3611 12.6667 14.7083 11.6667H16.4583C16.0694 13.1389 15.2778 14.3403 14.0833 15.2708C12.8889 16.2014 11.5278 16.6667 9.99998 16.6667Z" fill="currentColor"/>
</g>
</g>
</svg>
