<svg width="50" height="50" viewBox="0 0 50 50" fill="none" xmlns="http://www.w3.org/2000/svg">
<rect x="1" y="1" width="48" height="48" rx="24" fill="white"/>
<mask id="mask0_341_5405" style="mask-type:alpha" maskUnits="userSpaceOnUse" x="13" y="5" width="24" height="24">
<rect x="13" y="5" width="24" height="24" fill="#D9D9D9"/>
</mask>
<g mask="url(#mask0_341_5405)">
<path fill-rule="evenodd" clip-rule="evenodd" d="M20 27C19.1667 27 18.4584 26.7083 17.875 26.125C17.2917 25.5417 17 24.8333 17 24H16C15.45 24 14.9792 23.8042 14.5875 23.4125C14.1959 23.0208 14 22.55 14 22L14 19H26V11H29V10C29 9.71667 29.0959 9.47917 29.2875 9.2875C29.4792 9.09583 29.7167 9 30 9H31C31.2834 9 31.5209 9.09583 31.7125 9.2875C31.9042 9.47917 32 9.71667 32 10V11H32.55C32.9834 11 33.375 11.125 33.725 11.375C34.075 11.625 34.3167 11.9583 34.4501 12.375L35.9 16.675C35.9334 16.775 35.9584 16.8792 35.975 16.9875C35.9917 17.0958 36 17.2083 36 17.325V24H33C33 24.8333 32.7084 25.5417 32.125 26.125C31.5417 26.7083 30.8334 27 30 27C29.1667 27 28.4584 26.7083 27.875 26.125C27.2917 25.5417 27 24.8333 27 24H23C23 24.8333 22.7084 25.5417 22.125 26.125C21.5417 26.7083 20.8334 27 20 27ZM20.7125 24.7125C20.5209 24.9042 20.2834 25 20 25C19.7167 25 19.4792 24.9042 19.2875 24.7125C19.0959 24.5208 19 24.2833 19 24C19 23.7167 19.0959 23.4792 19.2875 23.2875C19.4792 23.0958 19.7167 23 20 23C20.2834 23 20.5209 23.0958 20.7125 23.2875C20.9042 23.4792 21 23.7167 21 24C21 24.2833 20.9042 24.5208 20.7125 24.7125ZM30.7125 24.7125C30.5209 24.9042 30.2834 25 30 25C29.7167 25 29.4792 24.9042 29.2875 24.7125C29.0959 24.5208 29 24.2833 29 24C29 23.7167 29.0959 23.4792 29.2875 23.2875C29.4792 23.0958 29.7167 23 30 23C30.2834 23 30.5209 23.0958 30.7125 23.2875C30.9042 23.4792 31 23.7167 31 24C31 24.2833 30.9042 24.5208 30.7125 24.7125ZM33.9 17H28V13H32.55L33.9 17Z" fill="#FF8A3A"/>
<path fill-rule="evenodd" clip-rule="evenodd" d="M15.6111 17.5C15.3056 17.5 15.044 17.3912 14.8264 17.1736C14.6088 16.956 14.5 16.6944 14.5 16.3889V8.61111C14.5 8.30556 14.6088 8.04398 14.8264 7.82639C15.044 7.6088 15.3056 7.5 15.6111 7.5H23.3889C23.6944 7.5 23.956 7.6088 24.1736 7.82639C24.3912 8.04398 24.5 8.30556 24.5 8.61111V16.3889C24.5 16.6944 24.3912 16.956 24.1736 17.1736C23.956 17.3912 23.6944 17.5 23.3889 17.5H15.6111ZM20.5 15.5H18.5V13.5H16.5V11.5H18.5V9.5H20.5V11.5H22.5V13.5H20.5V15.5Z" fill="#FF8A3A"/>
</g>
<path d="M24.7341 36.28V37.288H20.2581V41.68H19.0581V37.288H14.5821V36.28H21.6621C21.7901 35.688 21.8781 35.128 21.9261 34.6C21.9821 34.064 22.0101 33.528 22.0101 32.992V32.344H15.8541V31.3H23.1981V32.716C23.1981 33.292 23.1701 33.88 23.1141 34.48C23.0581 35.08 22.9741 35.68 22.8621 36.28H24.7341ZM30.34 34.792C30.276 34.904 30.136 35.052 29.92 35.236C29.712 35.412 29.408 35.628 29.008 35.884C28.6 36.14 28.204 36.38 27.82 36.604C27.436 36.82 27.016 37.044 26.56 37.276L25.972 36.328C26.484 36.064 26.932 35.828 27.316 35.62C27.708 35.404 28.096 35.172 28.48 34.924C28.944 34.628 29.268 34.328 29.452 34.024C29.644 33.712 29.74 33.328 29.74 32.872V32.584H26.524V31.552H34.156V32.584H30.94V32.872C30.94 33.096 30.96 33.3 31 33.484C31.04 33.668 31.108 33.84 31.204 34C31.3 34.152 31.428 34.304 31.588 34.456C31.748 34.6 31.948 34.748 32.188 34.9C32.42 35.044 32.632 35.176 32.824 35.296C33.024 35.416 33.22 35.532 33.412 35.644C33.612 35.748 33.812 35.856 34.012 35.968C34.22 36.072 34.452 36.188 34.708 36.316L34.12 37.264C33.864 37.128 33.628 37.004 33.412 36.892C33.204 36.772 33.004 36.66 32.812 36.556C32.62 36.444 32.428 36.332 32.236 36.22C32.052 36.108 31.86 35.988 31.66 35.86C31.26 35.604 30.956 35.388 30.748 35.212C30.548 35.036 30.416 34.896 30.352 34.792H30.34ZM35.416 39.196V40.204H25.264V39.196H29.74V36.832H30.94V39.196H35.416Z" fill="#FF8A3A"/>
<rect x="1" y="1" width="48" height="48" rx="24" stroke="#FF8A3A" stroke-width="1.5"/>
</svg>
