<svg width="100%" height="100%" viewBox="0 0 57 56" fill="none" xmlns="http://www.w3.org/2000/svg">
<g id="meeting_room">
<mask id="mask0_83_909" style="mask-type:alpha" maskUnits="userSpaceOnUse" x="0" y="0" width="57" height="56">
<rect id="Bounding box" x="0.5" width="56" height="56" fill="#D9D9D9"/>
</mask>
<g mask="url(#mask0_83_909)">
<path id="meeting_room_2" d="M7.5 49V44.3333H12.1667V7H35.5V9.33333H44.8333V44.3333H49.5V49H40.1667V14H35.5V49H7.5ZM26.1667 30.3333C26.8278 30.3333 27.3819 30.1097 27.8292 29.6625C28.2764 29.2153 28.5 28.6611 28.5 28C28.5 27.3389 28.2764 26.7847 27.8292 26.3375C27.3819 25.8903 26.8278 25.6667 26.1667 25.6667C25.5056 25.6667 24.9514 25.8903 24.5042 26.3375C24.0569 26.7847 23.8333 27.3389 23.8333 28C23.8333 28.6611 24.0569 29.2153 24.5042 29.6625C24.9514 30.1097 25.5056 30.3333 26.1667 30.3333Z" fill="currentColor"/>
</g>
</g>
</svg>
