<svg width="50" height="50" viewBox="0 0 50 50" fill="none" xmlns="http://www.w3.org/2000/svg">
<rect x="1" y="1" width="48" height="48" rx="24" fill="white"/>
<mask id="mask0_341_5384" style="mask-type:alpha" maskUnits="userSpaceOnUse" x="13" y="5" width="24" height="24">
<rect x="13" y="5" width="24" height="24" fill="#D9D9D9"/>
</mask>
<g mask="url(#mask0_341_5384)">
<path fill-rule="evenodd" clip-rule="evenodd" d="M20 27C19.1667 27 18.4584 26.7083 17.875 26.125C17.2917 25.5417 17 24.8333 17 24H16C15.45 24 14.9792 23.8042 14.5875 23.4125C14.1959 23.0208 14 22.55 14 22L14 19H26V11H29V10C29 9.71667 29.0959 9.47917 29.2875 9.2875C29.4792 9.09583 29.7167 9 30 9H31C31.2834 9 31.5209 9.09583 31.7125 9.2875C31.9042 9.47917 32 9.71667 32 10V11H32.55C32.9834 11 33.375 11.125 33.725 11.375C34.075 11.625 34.3167 11.9583 34.4501 12.375L35.9 16.675C35.9334 16.775 35.9584 16.8792 35.975 16.9875C35.9917 17.0958 36 17.2083 36 17.325V24H33C33 24.8333 32.7084 25.5417 32.125 26.125C31.5417 26.7083 30.8334 27 30 27C29.1667 27 28.4584 26.7083 27.875 26.125C27.2917 25.5417 27 24.8333 27 24H23C23 24.8333 22.7084 25.5417 22.125 26.125C21.5417 26.7083 20.8334 27 20 27ZM20.7125 24.7125C20.5209 24.9042 20.2834 25 20 25C19.7167 25 19.4792 24.9042 19.2875 24.7125C19.0959 24.5208 19 24.2833 19 24C19 23.7167 19.0959 23.4792 19.2875 23.2875C19.4792 23.0958 19.7167 23 20 23C20.2834 23 20.5209 23.0958 20.7125 23.2875C20.9042 23.4792 21 23.7167 21 24C21 24.2833 20.9042 24.5208 20.7125 24.7125ZM30.7125 24.7125C30.5209 24.9042 30.2834 25 30 25C29.7167 25 29.4792 24.9042 29.2875 24.7125C29.0959 24.5208 29 24.2833 29 24C29 23.7167 29.0959 23.4792 29.2875 23.2875C29.4792 23.0958 29.7167 23 30 23C30.2834 23 30.5209 23.0958 30.7125 23.2875C30.9042 23.4792 31 23.7167 31 24C31 24.2833 30.9042 24.5208 30.7125 24.7125ZM33.9 17H28V13H32.55L33.9 17Z" fill="#FF8A3A"/>
<path d="M20.0002 18.1751C18.7835 18.1751 17.7419 17.7543 16.8752 16.9126C16.0085 16.071 15.5752 15.0418 15.5752 13.8251C15.5752 13.2335 15.6877 12.6689 15.9127 12.1314C16.1377 11.5939 16.4627 11.121 16.8877 10.7126L20.0002 7.65015L23.1127 10.7126C23.5377 11.121 23.8627 11.5939 24.0877 12.1314C24.3127 12.6689 24.4252 13.2335 24.4252 13.8251C24.4252 15.0418 23.9919 16.071 23.1252 16.9126C22.2585 17.7543 21.2169 18.1751 20.0002 18.1751Z" fill="#FF8A3A"/>
</g>
<path d="M17.1501 39.568C17.1501 39.248 17.2301 38.968 17.3901 38.728C17.5501 38.48 17.7781 38.272 18.0741 38.104C18.3781 37.936 18.7421 37.808 19.1661 37.72C19.5981 37.632 20.0781 37.588 20.6061 37.588C21.1341 37.588 21.6101 37.632 22.0341 37.72C22.4581 37.808 22.8181 37.936 23.1141 38.104C23.4181 38.272 23.6501 38.48 23.8101 38.728C23.9781 38.976 24.0621 39.256 24.0621 39.568V40.024C24.0621 40.336 23.9781 40.616 23.8101 40.864C23.6501 41.112 23.4181 41.32 23.1141 41.488C22.8181 41.656 22.4581 41.784 22.0341 41.872C21.6101 41.96 21.1341 42.004 20.6061 42.004C20.0781 42.004 19.5981 41.96 19.1661 41.872C18.7421 41.784 18.3781 41.656 18.0741 41.488C17.7781 41.32 17.5501 41.112 17.3901 40.864C17.2301 40.624 17.1501 40.344 17.1501 40.024V39.568ZM22.8501 30.616H23.9901V37.396H22.8501V34.252H21.6741V36.94H20.5461V30.76H21.6741V33.232H22.8501V30.616ZM19.9101 36.508C19.6301 36.556 19.3621 36.596 19.1061 36.628C18.8581 36.652 18.5581 36.672 18.2061 36.688C17.8621 36.704 17.4381 36.716 16.9341 36.724C16.4301 36.732 15.7901 36.736 15.0141 36.736V31.252H19.2381V32.224H16.1301V33.508H19.1661V34.456H16.1301V35.764C16.5781 35.764 16.9661 35.76 17.2941 35.752C17.6301 35.744 17.9341 35.732 18.2061 35.716C18.4781 35.7 18.7381 35.68 18.9861 35.656C19.2341 35.624 19.4981 35.588 19.7781 35.548L19.9101 36.508ZM22.8981 39.64C22.8981 39.48 22.8421 39.336 22.7301 39.208C22.6181 39.072 22.4621 38.956 22.2621 38.86C22.0621 38.764 21.8181 38.692 21.5301 38.644C21.2501 38.588 20.9421 38.56 20.6061 38.56C20.2701 38.56 19.9581 38.588 19.6701 38.644C19.3901 38.692 19.1501 38.764 18.9501 38.86C18.7501 38.956 18.5941 39.072 18.4821 39.208C18.3701 39.336 18.3141 39.48 18.3141 39.64V39.94C18.3141 40.1 18.3701 40.248 18.4821 40.384C18.5941 40.52 18.7501 40.636 18.9501 40.732C19.1501 40.828 19.3901 40.9 19.6701 40.948C19.9581 41.004 20.2701 41.032 20.6061 41.032C20.9421 41.032 21.2501 41.004 21.5301 40.948C21.8181 40.9 22.0621 40.828 22.2621 40.732C22.4621 40.636 22.6181 40.52 22.7301 40.384C22.8421 40.256 22.8981 40.112 22.8981 39.952V39.64ZM33.988 31.576V33.472C33.988 34.008 33.98 34.492 33.964 34.924C33.948 35.356 33.92 35.764 33.88 36.148C33.848 36.524 33.808 36.888 33.76 37.24C33.712 37.592 33.652 37.956 33.58 38.332L32.392 38.188C32.48 37.74 32.548 37.312 32.596 36.904C32.652 36.496 32.696 36.084 32.728 35.668L26.416 35.776L26.392 34.768L32.788 34.696C32.788 34.56 32.788 34.428 32.788 34.3C32.796 34.164 32.8 34.028 32.8 33.892V32.608H26.572V31.576H33.988ZM35.416 39.196V40.204H25.264V39.196H35.416Z" fill="#FF8A3A"/>
<rect x="1" y="1" width="48" height="48" rx="24" stroke="#FF8A3A" stroke-width="1.5"/>
</svg>
