<svg width="50" height="50" viewBox="0 0 50 50" fill="none" xmlns="http://www.w3.org/2000/svg">
<rect x="1" y="1" width="48" height="48" rx="24" fill="white"/>
<mask id="mask0_341_5428" style="mask-type:alpha" maskUnits="userSpaceOnUse" x="13" y="5" width="24" height="24">
<rect x="13" y="5" width="24" height="24" fill="#D9D9D9"/>
</mask>
<g mask="url(#mask0_341_5428)">
<path d="M25 27C23.6333 27 22.3417 26.7375 21.125 26.2125C19.9083 25.6875 18.8458 24.9708 17.9375 24.0625C17.0292 23.1542 16.3125 22.0917 15.7875 20.875C15.2625 19.6583 15 18.3667 15 17C15 15.6167 15.2625 14.3208 15.7875 13.1125C16.3125 11.9042 17.0292 10.8458 17.9375 9.9375C18.8458 9.02917 19.9083 8.3125 21.125 7.7875C22.3417 7.2625 23.6333 7 25 7C26.3833 7 27.6792 7.2625 28.8875 7.7875C30.0958 8.3125 31.1542 9.02917 32.0625 9.9375C32.9708 10.8458 33.6875 11.9042 34.2125 13.1125C34.7375 14.3208 35 15.6167 35 17C35 18.3667 34.7375 19.6583 34.2125 20.875C33.6875 22.0917 32.9708 23.1542 32.0625 24.0625C31.1542 24.9708 30.0958 25.6875 28.8875 26.2125C27.6792 26.7375 26.3833 27 25 27ZM20.5 18C20.9167 18 21.2708 17.8542 21.5625 17.5625C21.8542 17.2708 22 16.9167 22 16.5C22 16.0833 21.8542 15.7292 21.5625 15.4375C21.2708 15.1458 20.9167 15 20.5 15C20.0833 15 19.7292 15.1458 19.4375 15.4375C19.1458 15.7292 19 16.0833 19 16.5C19 16.9167 19.1458 17.2708 19.4375 17.5625C19.7292 17.8542 20.0833 18 20.5 18ZM29.5 18C29.9167 18 30.2708 17.8542 30.5625 17.5625C30.8542 17.2708 31 16.9167 31 16.5C31 16.0833 30.8542 15.7292 30.5625 15.4375C30.2708 15.1458 29.9167 15 29.5 15C29.0833 15 28.7292 15.1458 28.4375 15.4375C28.1458 15.7292 28 16.0833 28 16.5C28 16.9167 28.1458 17.2708 28.4375 17.5625C28.7292 17.8542 29.0833 18 29.5 18ZM22 22.5C22.4167 22.5 22.7708 22.3542 23.0625 22.0625C23.3542 21.7708 23.5 21.4167 23.5 21C23.5 20.5833 23.3542 20.2292 23.0625 19.9375C22.7708 19.6458 22.4167 19.5 22 19.5C21.5833 19.5 21.2292 19.6458 20.9375 19.9375C20.6458 20.2292 20.5 20.5833 20.5 21C20.5 21.4167 20.6458 21.7708 20.9375 22.0625C21.2292 22.3542 21.5833 22.5 22 22.5ZM28 22.5C28.4167 22.5 28.7708 22.3542 29.0625 22.0625C29.3542 21.7708 29.5 21.4167 29.5 21C29.5 20.5833 29.3542 20.2292 29.0625 19.9375C28.7708 19.6458 28.4167 19.5 28 19.5C27.5833 19.5 27.2292 19.6458 26.9375 19.9375C26.6458 20.2292 26.5 20.5833 26.5 21C26.5 21.4167 26.6458 21.7708 26.9375 22.0625C27.2292 22.3542 27.5833 22.5 28 22.5ZM23.5 14H26.5C26.9333 14 27.2917 13.8583 27.575 13.575C27.8583 13.2917 28 12.9333 28 12.5C28 12.0667 27.8583 11.7083 27.575 11.425C27.2917 11.1417 26.9333 11 26.5 11H23.5C23.0667 11 22.7083 11.1417 22.425 11.425C22.1417 11.7083 22 12.0667 22 12.5C22 12.9333 22.1417 13.2917 22.425 13.575C22.7083 13.8583 23.0667 14 23.5 14Z" fill="#799EFF"/>
</g>
<path d="M18.2661 36.232C18.2101 36.368 18.1261 36.508 18.0141 36.652C17.9021 36.796 17.7501 36.972 17.5581 37.18C17.3101 37.452 17.0341 37.744 16.7301 38.056C16.4261 38.36 16.0701 38.7 15.6621 39.076L14.8821 38.272C15.2421 37.944 15.5701 37.632 15.8661 37.336C16.1701 37.04 16.4581 36.74 16.7301 36.436C16.9301 36.22 17.0901 36.024 17.2101 35.848C17.3301 35.672 17.4221 35.5 17.4861 35.332C17.5501 35.164 17.5941 34.992 17.6181 34.816C17.6421 34.64 17.6541 34.44 17.6541 34.216V32.644H15.2781V31.612H21.1701V32.644H18.8541V34.216C18.8541 34.456 18.8661 34.664 18.8901 34.84C18.9141 35.016 18.9581 35.184 19.0221 35.344C19.0941 35.504 19.1941 35.672 19.3221 35.848C19.4501 36.016 19.6221 36.216 19.8381 36.448C20.0941 36.728 20.3541 36.996 20.6181 37.252C20.8901 37.508 21.2061 37.792 21.5661 38.104L20.7861 38.908C20.3781 38.532 20.0381 38.212 19.7661 37.948C19.4941 37.676 19.2421 37.416 19.0101 37.168C18.8421 36.984 18.6901 36.812 18.5541 36.652C18.4181 36.492 18.3261 36.352 18.2781 36.232H18.2661ZM22.6701 41.68V30.616H23.8581V41.68H22.6701ZM28.54 39.208C28.116 39.208 27.74 39.144 27.412 39.016C27.084 38.88 26.804 38.704 26.572 38.488C26.34 38.272 26.164 38.024 26.044 37.744C25.924 37.464 25.864 37.18 25.864 36.892V36.196C25.864 35.908 25.924 35.624 26.044 35.344C26.164 35.064 26.34 34.816 26.572 34.6C26.804 34.376 27.084 34.2 27.412 34.072C27.74 33.936 28.116 33.868 28.54 33.868C28.956 33.868 29.328 33.936 29.656 34.072C29.992 34.2 30.276 34.376 30.508 34.6C30.74 34.816 30.916 35.064 31.036 35.344C31.156 35.624 31.216 35.908 31.216 36.196V36.892C31.216 37.18 31.156 37.464 31.036 37.744C30.916 38.024 30.74 38.272 30.508 38.488C30.276 38.704 29.992 38.88 29.656 39.016C29.328 39.144 28.956 39.208 28.54 39.208ZM35.632 36.04H33.928V41.68H32.74V30.616H33.928V35.008H35.632V36.04ZM28.54 34.864C28.06 34.864 27.68 35 27.4 35.272C27.12 35.536 26.98 35.888 26.98 36.328V36.76C26.98 37.2 27.12 37.552 27.4 37.816C27.68 38.08 28.06 38.212 28.54 38.212C29.02 38.212 29.4 38.08 29.68 37.816C29.96 37.552 30.1 37.2 30.1 36.76V36.328C30.1 35.888 29.96 35.536 29.68 35.272C29.4 35 29.02 34.864 28.54 34.864ZM27.952 32.248V30.688H29.14V32.248H31.708V33.256H25.312V32.248H27.952Z" fill="#799EFF"/>
<rect x="1" y="1" width="48" height="48" rx="24" stroke="#799EFF" stroke-width="1.5"/>
</svg>
