<svg width="48" height="48" viewBox="0 0 48 48" fill="none" xmlns="http://www.w3.org/2000/svg">
<g filter="url(#filter0_d_60_1775)">
<rect x="10" y="6" width="28" height="28" rx="14" fill="white" shape-rendering="crispEdges"/>
<mask id="mask0_60_1775" style="mask-type:alpha" maskUnits="userSpaceOnUse" x="14" y="10" width="20" height="20">
<rect x="14" y="10" width="20" height="20" fill="#D9D9D9"/>
</mask>
<g mask="url(#mask0_60_1775)">
<path d="M19.8333 27.5C19.1388 27.5 18.5485 27.2569 18.0624 26.7708C17.5763 26.2847 17.3333 25.6944 17.3333 25H14.8333V19.1667H23.9999V14.1667H27.3333V12.5H29.8333V14.1667H31.4791L33.1666 19.1458V25H30.6666C30.6666 25.6944 30.4235 26.2847 29.9374 26.7708C29.4513 27.2569 28.861 27.5 28.1666 27.5C27.4721 27.5 26.8819 27.2569 26.3958 26.7708C25.9096 26.2847 25.6666 25.6944 25.6666 25H22.3333C22.3333 25.6944 22.0902 26.2847 21.6041 26.7708C21.118 27.2569 20.5277 27.5 19.8333 27.5ZM19.8333 25.8333C20.0694 25.8333 20.2673 25.7535 20.427 25.5938C20.5867 25.434 20.6666 25.2361 20.6666 25C20.6666 24.7639 20.5867 24.566 20.427 24.4062C20.2673 24.2465 20.0694 24.1667 19.8333 24.1667C19.5971 24.1667 19.3992 24.2465 19.2395 24.4062C19.0798 24.566 18.9999 24.7639 18.9999 25C18.9999 25.2361 19.0798 25.434 19.2395 25.5938C19.3992 25.7535 19.5971 25.8333 19.8333 25.8333ZM28.1666 25.8333C28.4027 25.8333 28.6006 25.7535 28.7603 25.5938C28.9201 25.434 28.9999 25.2361 28.9999 25C28.9999 24.7639 28.9201 24.566 28.7603 24.4062C28.6006 24.2465 28.4027 24.1667 28.1666 24.1667C27.9305 24.1667 27.7326 24.2465 27.5728 24.4062C27.4131 24.566 27.3333 24.7639 27.3333 25C27.3333 25.2361 27.4131 25.434 27.5728 25.5938C27.7326 25.7535 27.9305 25.8333 28.1666 25.8333ZM25.6666 19.1667H31.4166L30.2916 15.8333H25.6666V19.1667ZM14.8333 18.3333V17.0833H15.6666V15.4167H14.8333V14.1667H23.1666V15.4167H22.3333V17.0833H23.1666V18.3333H14.8333ZM16.9166 17.0833H18.3749V15.4167H16.9166V17.0833ZM19.6249 17.0833H21.0833V15.4167H19.6249V17.0833Z" fill="#FF8A3A"/>
</g>
</g>
<defs>
<filter id="filter0_d_60_1775" x="0" y="0" width="48" height="48" filterUnits="userSpaceOnUse" color-interpolation-filters="sRGB">
<feFlood flood-opacity="0" result="BackgroundImageFix"/>
<feColorMatrix in="SourceAlpha" type="matrix" values="0 0 0 0 0 0 0 0 0 0 0 0 0 0 0 0 0 0 127 0" result="hardAlpha"/>
<feOffset dy="4"/>
<feGaussianBlur stdDeviation="5"/>
<feComposite in2="hardAlpha" operator="out"/>
<feColorMatrix type="matrix" values="0 0 0 0 0.226206 0 0 0 0 0.253842 0 0 0 0 0.326389 0 0 0 0.15 0"/>
<feBlend mode="normal" in2="BackgroundImageFix" result="effect1_dropShadow_60_1775"/>
<feBlend mode="normal" in="SourceGraphic" in2="effect1_dropShadow_60_1775" result="shape"/>
</filter>
</defs>
</svg>
