<svg xmlns="http://www.w3.org/2000/svg" width="100%" height="100%" viewBox="0 0 16 16" fill="none">
  <mask id="a" style="mask-type:alpha" maskUnits="userSpaceOnUse" x="0" y="0" width="16" height="16">
    <path fill="#D9D9D9" d="M0 0h16v16H0z"/>
  </mask>
  <g mask="url(#a)">
    <path d="M9.333 13.817V12.45a4.48 4.48 0 0 0 2.417-1.667 4.574 4.574 0 0 0 .917-2.8 4.574 4.574 0 0 0-.917-2.8 4.477 4.477 0 0 0-2.417-1.666V2.15c1.378.311 2.5 1.008 3.367 2.092.867 1.083 1.3 2.33 1.3 3.741s-.433 2.659-1.3 3.742c-.867 1.083-1.989 1.78-3.367 2.092ZM2 10V6h2.667L8 2.667v10.666L4.667 10H2Zm7.333.667V5.3c.523.244.93.611 1.225 1.1A3.04 3.04 0 0 1 11 8c0 .567-.147 1.092-.442 1.575a2.783 2.783 0 0 1-1.225 1.092Z" fill="currentColor"/>
  </g>
</svg>
