<svg width="100%" height="100%" viewBox="0 0 57 56" fill="none" xmlns="http://www.w3.org/2000/svg">
<g id="warning">
<mask id="mask0_98_705" style="mask-type:alpha" maskUnits="userSpaceOnUse" x="0" y="0" width="57" height="56">
<rect id="Bounding box" x="0.5" width="56" height="56" fill="#D9D9D9"/>
</mask>
<g mask="url(#mask0_98_705)">
<path id="warning_2" d="M2.83337 49L28.5 4.66663L54.1667 49H2.83337ZM28.5 42C29.1611 42 29.7153 41.7763 30.1625 41.3291C30.6098 40.8819 30.8334 40.3277 30.8334 39.6666C30.8334 39.0055 30.6098 38.4513 30.1625 38.0041C29.7153 37.5569 29.1611 37.3333 28.5 37.3333C27.8389 37.3333 27.2848 37.5569 26.8375 38.0041C26.3903 38.4513 26.1667 39.0055 26.1667 39.6666C26.1667 40.3277 26.3903 40.8819 26.8375 41.3291C27.2848 41.7763 27.8389 42 28.5 42ZM26.1667 35H30.8334V23.3333H26.1667V35Z" fill="currentColor"/>
</g>
</g>
</svg>
