<svg width="100%" height="100%" viewBox="0 0 20 20" fill="none" xmlns="http://www.w3.org/2000/svg">
<g id="water_drop">
<mask id="mask0_83_883" style="mask-type:alpha" maskUnits="userSpaceOnUse" x="0" y="0" width="20" height="20">
<rect id="Bounding box" width="20" height="20" fill="#D9D9D9"/>
</mask>
<g mask="url(#mask0_83_883)">
<path id="water_drop_2" d="M10.2291 15.8333C10.3958 15.8194 10.5381 15.7534 10.6562 15.6354C10.7742 15.5173 10.8333 15.375 10.8333 15.2083C10.8333 15.0138 10.7708 14.8576 10.6458 14.7395C10.5208 14.6215 10.361 14.5694 10.1666 14.5833C9.59714 14.625 8.99297 14.4687 8.35409 14.1145C7.7152 13.7604 7.31242 13.118 7.14575 12.1875C7.11797 12.0347 7.04506 11.9097 6.927 11.8125C6.80895 11.7152 6.67353 11.6666 6.52075 11.6666C6.32631 11.6666 6.16659 11.7395 6.04159 11.8854C5.91659 12.0312 5.87492 12.2013 5.91659 12.3958C6.1527 13.6597 6.70825 14.5625 7.58325 15.1041C8.45825 15.6458 9.3402 15.8888 10.2291 15.8333ZM9.99992 18.3333C8.09714 18.3333 6.51034 17.6805 5.2395 16.375C3.96867 15.0694 3.33325 13.4444 3.33325 11.5C3.33325 10.1111 3.88534 8.60065 4.9895 6.96871C6.09367 5.33676 7.76381 3.5694 9.99992 1.66663C12.236 3.5694 13.9062 5.33676 15.0103 6.96871C16.1145 8.60065 16.6666 10.1111 16.6666 11.5C16.6666 13.4444 16.0312 15.0694 14.7603 16.375C13.4895 17.6805 11.9027 18.3333 9.99992 18.3333Z" fill="currentColor"/>
</g>
</g>
</svg>
